<?xml version="1.0" encoding="UTF-8" standalone="no"?>
<!-- Created with Inkscape (http://www.inkscape.org/) -->

<svg
   id="svg2"
   height="64"
   viewBox="0 0 157 64"
   width="157"
   inkscape:version="1.4 (e7c3feb100, 2024-10-09)"
   sodipodi:docname="background.svg"
   version="1.1"
   xmlns:inkscape="http://www.inkscape.org/namespaces/inkscape"
   xmlns:sodipodi="http://sodipodi.sourceforge.net/DTD/sodipodi-0.dtd"
   xmlns:xlink="http://www.w3.org/1999/xlink"
   xmlns="http://www.w3.org/2000/svg"
   xmlns:svg="http://www.w3.org/2000/svg">
  <sodipodi:namedview
     id="namedview108"
     pagecolor="#ffffff"
     bordercolor="#111111"
     borderopacity="1"
     inkscape:pageshadow="0"
     inkscape:pageopacity="0"
     inkscape:pagecheckerboard="1"
     inkscape:blackoutopacity="0.0"
     showgrid="false"
     inkscape:current-layer="svg2"
     inkscape:showpageshadow="2"
     inkscape:deskcolor="#d1d1d1"
     inkscape:zoom="4.2742334"
     inkscape:cx="-29.24501"
     inkscape:cy="176.75684"
     inkscape:window-width="1463"
     inkscape:window-height="885"
     inkscape:window-x="0"
     inkscape:window-y="0"
     inkscape:window-maximized="1">
    <inkscape:grid
       type="xygrid"
       id="grid988"
       originx="0"
       originy="4"
       spacingy="1"
       spacingx="1"
       units="px" />
  </sodipodi:namedview>
  <defs
     id="defs15">
    <inkscape:path-effect
       effect="fillet_chamfer"
       id="path-effect1"
       is_visible="true"
       lpeversion="1"
       nodesatellites_param="F,0,0,1,0,0,0,1 @ F,0,0,1,0,0,0,1 @ IF,0,1,1,0,38.001625,0,1 @ F,0,0,1,0,0,0,1 @ F,0,0,1,0,0,0,1"
       radius="19"
       unit="px"
       method="auto"
       mode="F"
       chamfer_steps="1"
       flexible="false"
       use_knot_distance="true"
       apply_no_radius="true"
       apply_with_radius="true"
       only_selected="true"
       hide_knots="false" />
    <style
       type="text/css"
       id="current-color-scheme">
            .ColorScheme-Text {
                color:#232629;
                stop-color:#232629;
            }
            .ColorScheme-Background {
                color:#eff0f1;
                stop-color:#eff0f1;
            }
        </style>
    <linearGradient
       id="shadow-side"
       gradientUnits="userSpaceOnUse">
      <stop
         id="stop1762"
         offset="0"
         style="stop-color:#000;stop-opacity:.2" />
      <stop
         id="stop1760"
         offset=".3333333333"
         style="stop-color:#000;stop-opacity:.1" />
      <stop
         id="stop1758"
         offset=".5"
         style="stop-color:#000;stop-opacity:.05" />
      <stop
         id="stop1756"
         offset=".5833333333"
         style="stop-color:#000;stop-opacity:.025" />
      <stop
         id="stop1754"
         offset="1"
         style="stop-color:#000;stop-opacity:0" />
    </linearGradient>
    <linearGradient
       id="shadow-corner"
       gradientUnits="userSpaceOnUse">
      <stop
         id="stop11958"
         offset="0"
         style="stop-color:#000;stop-opacity:1" />
      <stop
         id="stop11960"
         offset=".2857142857"
         style="stop-color:#000;stop-opacity:.2" />
      <stop
         id="stop11962"
         offset=".5238095238"
         style="stop-color:#000;stop-opacity:.1" />
      <stop
         id="stop11966"
         offset=".6428571429"
         style="stop-color:#000;stop-opacity:.05" />
      <stop
         id="stop11968"
         offset=".7023809524"
         style="stop-color:#000;stop-opacity:.025" />
      <stop
         id="stop11970"
         offset="1"
         style="stop-color:#000;stop-opacity:0" />
    </linearGradient>
    <radialGradient
       inkscape:collect="always"
       xlink:href="#shadow-corner"
       id="radialGradient3268-6-6"
       cx="93.14286"
       cy="50"
       fx="93.14286"
       fy="50"
       r="6.5"
       gradientUnits="userSpaceOnUse"
       gradientTransform="matrix(0,2.1538462,-2.1538462,0,107.69231,-202.61538)" />
    <linearGradient
       inkscape:collect="always"
       xlink:href="#shadow-side"
       id="linearGradient4945"
       gradientUnits="userSpaceOnUse"
       x1="15.999999"
       y1="13.999998"
       x2="15.999999"
       y2="4" />
    <linearGradient
       inkscape:collect="always"
       xlink:href="#shadow-side"
       id="linearGradient1734"
       gradientUnits="userSpaceOnUse"
       x1="16"
       y1="6"
       x2="16"
       y2="16" />
    <linearGradient
       inkscape:collect="always"
       xlink:href="#shadow-side"
       id="linearGradient1984"
       gradientUnits="userSpaceOnUse"
       x1="12"
       y1="16"
       x2="2"
       y2="16" />
    <linearGradient
       inkscape:collect="always"
       xlink:href="#shadow-side"
       id="linearGradient8667"
       gradientUnits="userSpaceOnUse"
       x1="4"
       y1="16"
       x2="14"
       y2="16" />
    <radialGradient
       inkscape:collect="always"
       xlink:href="#shadow-corner"
       id="radialGradient3268"
       cx="95"
       cy="50"
       fx="95"
       fy="50"
       r="6.5"
       gradientUnits="userSpaceOnUse"
       gradientTransform="matrix(0,2.1538462,-2.1538462,0,107.69231,-202.61538)" />
    <radialGradient
       inkscape:collect="always"
       xlink:href="#shadow-corner"
       id="radialGradient3268-4"
       cx="95"
       cy="50"
       fx="95"
       fy="50"
       r="6.5"
       gradientUnits="userSpaceOnUse"
       gradientTransform="matrix(0,2.1538462,-2.1538462,0,107.69231,-202.61538)" />
    <radialGradient
       inkscape:collect="always"
       xlink:href="#shadow-corner"
       id="radialGradient3268-6"
       cx="93.14286"
       cy="50"
       fx="93.14286"
       fy="50"
       r="6.5"
       gradientUnits="userSpaceOnUse"
       gradientTransform="matrix(0,2.1538462,-2.1538462,0,107.69231,-202.61538)" />
  </defs>
  <g
     id="shadow-bottomright-9"
     transform="translate(95,48)" />
  <rect
     id="hint-tile-center"
     height="5"
     style="fill:#ff6600"
     width="5"
     x="0"
     y="0" />
  <rect
     id="mask-top"
     height="12.000041"
     width="63.997829"
     x="259.9996"
     y="154"
     style="stroke-width:1.99996" />
  <rect
     id="mask-center"
     height="63.999992"
     width="63.997849"
     x="259.9996"
     y="166"
     style="stroke-width:1.99996" />
  <rect
     id="mask-bottom"
     height="12.000042"
     transform="scale(1,-1)"
     width="63.997864"
     x="259.9996"
     y="-241.99997"
     style="stroke-width:1.99996" />
  <rect
     id="mask-left"
     height="63.999992"
     width="11.999597"
     x="248"
     y="166"
     style="stroke-width:1.99996" />
  <rect
     id="mask-right"
     height="63.999992"
     width="11.999597"
     x="323.99753"
     y="166"
     style="stroke-width:1.99996" />
  <path
     id="mask-topleft"
     d="m 249.99706,166.00001 h -1.99993 11.9996 v -12 l 0.005,1.0147 c -6.91469,-0.01 -10.92932,4.13035 -11.00276,10.98529 z"
     sodipodi:nodetypes="ccccccc"
     style="stroke-width:1.99996" />
  <g
     id="shadow-center"
     transform="matrix(1.9999999,0,0,1.9999999,87.390003,146.64696)">
    <rect
       id="rect4908"
       height="32"
       style="opacity:0.00100002;fill-opacity:0.00100002"
       width="32"
       x="0"
       y="0" />
  </g>
  <path
     style="fill:#ffff00;stroke-width:4;stroke-linecap:round"
     d="M 87.390003,134.64696 H 151.39 c 8,0 12,4 12,12 v 64 c 0,7.99999 -4,11.99999 -12,11.99999 H 87.390003 c -8,0 -11.999999,-4 -11.999999,-11.99999 v -64 c 0,-8 3.999999,-12 11.999999,-12 z"
     id="path838"
     sodipodi:nodetypes="ccccccccc" />
  <g
     id="shadow-topleft"
     transform="matrix(-1.9999999,0,0,-1.9999999,87.390003,146.64696)">
    <path
       d="M 0,6 V 0 H 6 C 6,4 4,6 0,6 Z"
       inkscape:label="#shadow-bottomright"
       style="opacity:0.00100002;fill:#000000;fill-opacity:0.00392157"
       id="path95-4-2"
       sodipodi:nodetypes="cccc" />
    <path
       id="path2368-7-5"
       style="fill:url(#radialGradient3268-6-6);fill-opacity:1;fill-rule:evenodd;stroke-width:0.999997"
       d="M 6,0 C 6,4 4,6 0,6 V 16 H 3 C 10.179702,16 16,10.179702 16,3 V 0 Z"
       sodipodi:nodetypes="cccsscc" />
  </g>
  <g
     id="shadow-top"
     transform="matrix(1.9999999,0,0,1.9999999,87.390003,114.64696)">
    <rect
       id="st"
       height="10"
       width="32"
       style="fill:url(#linearGradient4945);fill-opacity:1"
       x="0"
       y="0" />
    <rect
       id="rect1546"
       height="6"
       style="opacity:0.00100002;fill:#000000;fill-opacity:0.00392157;fill-rule:evenodd"
       width="32"
       y="10"
       x="0" />
  </g>
  <g
     id="shadow-bottom"
     transform="matrix(1.9999999,0,0,1.9999999,87.390003,210.64696)">
    <rect
       id="rect1546-6"
       height="6"
       style="opacity:0.00100002;fill:#000000;fill-opacity:0.00392157;fill-rule:evenodd"
       width="32"
       x="0"
       y="0" />
    <rect
       id="sb"
       height="10"
       width="32"
       y="6"
       style="fill:url(#linearGradient1734);fill-opacity:1"
       x="0" />
  </g>
  <g
     id="shadow-left"
     transform="matrix(1.9999999,0,0,1.9999999,55.390005,146.64696)">
    <rect
       id="sl"
       height="32"
       width="10"
       style="fill:url(#linearGradient1984);fill-opacity:1"
       x="0"
       y="0" />
    <rect
       id="rect1546-3-7"
       height="32"
       style="opacity:0.00100002;fill:#000000;fill-opacity:0.00392157;fill-rule:evenodd"
       width="6"
       x="10"
       y="0" />
  </g>
  <g
     id="shadow-right"
     transform="matrix(1.9999999,0,0,1.9999999,151.39,146.64696)">
    <rect
       id="rect1546-3"
       height="32"
       style="opacity:0.00100002;fill:#000000;fill-opacity:0.00392157;fill-rule:evenodd"
       width="6"
       x="0"
       y="0" />
    <rect
       id="sr"
       height="32"
       width="10"
       x="6"
       style="fill:url(#linearGradient8667);fill-opacity:1"
       y="0" />
  </g>
  <rect
     id="shadow-hint-top-margin"
     height="19.999998"
     style="fill:#ff00ff;stroke-width:1.99999"
     width="3.9999998"
     x="113.39"
     y="114.64697" />
  <rect
     id="shadow-hint-bottom-margin"
     height="19.999998"
     style="fill:#ff00ff;stroke-width:1.99999"
     width="3.9999998"
     x="113.39"
     y="222.64697" />
  <rect
     id="shadow-hint-right-margin"
     height="3.9999998"
     style="fill:#ff00ff;stroke-width:1.99999"
     width="19.999998"
     x="163.39"
     y="180.64697" />
  <rect
     id="shadow-hint-left-margin"
     height="3.9999998"
     style="fill:#ff00ff;stroke-width:1.99999"
     width="19.999998"
     x="55.389996"
     y="172.64697" />
  <rect
     id="shadow-hint-top-inset"
     height="19.999998"
     style="fill:#00ff00;stroke-width:1.99999"
     width="3.9999998"
     x="121.39"
     y="114.64697" />
  <rect
     id="shadow-hint-bottom-inset"
     height="19.999998"
     style="fill:#00ff00;stroke-width:1.99999"
     width="3.9999998"
     x="121.39"
     y="222.64697" />
  <rect
     id="shadow-hint-right-inset"
     height="3.9999998"
     style="fill:#00ff00;stroke-width:1.99999"
     width="19.999998"
     x="163.39"
     y="172.64697" />
  <rect
     id="shadow-hint-left-inset"
     height="3.9999998"
     style="fill:#00ff00;stroke-width:1.99999"
     width="19.999998"
     x="55.389996"
     y="180.64697" />
  <g
     id="shadow-bottomright"
     transform="matrix(1.9999999,0,0,1.9999999,151.39,210.64696)">
    <path
       d="M 0,6 V 0 H 6 C 6,3.9985637 3.9804714,6 0,6 Z"
       inkscape:label="#shadow-bottomright"
       style="opacity:0.00100002;fill:#000000;fill-opacity:0.00392157"
       id="path95"
       sodipodi:nodetypes="cccc" />
    <path
       id="path2368"
       style="fill:url(#radialGradient3268);fill-opacity:1;fill-rule:evenodd;stroke-width:0.999997"
       d="M 6,0 C 6,4 4,6 0,6 V 16 H 3 C 10.179702,16 16,10.179702 16,3 V 0 Z"
       sodipodi:nodetypes="cccsscc" />
  </g>
  <g
     id="shadow-bottomleft"
     transform="matrix(-1.9999999,0,0,1.9999999,87.390003,210.64696)">
    <path
       d="M 3,6 H 0 V 0 H 6 V 3 C 6,4.6568542 4.6568542,6 3,6 Z"
       inkscape:label="#shadow-bottomright"
       style="opacity:0.00100002;fill:#000000;fill-opacity:0.00392157"
       id="path95-1" />
    <path
       id="path2368-0"
       style="fill:url(#radialGradient3268-4);fill-opacity:1;fill-rule:evenodd;stroke-width:0.999997"
       d="M 6,0 C 6,3.9985637 3.9951555,6 0,6 V 16 H 3 C 10.179702,16 16,10.179702 16,3 V 0 Z"
       sodipodi:nodetypes="cccsscc" />
  </g>
  <g
     id="shadow-topright"
     transform="matrix(1.9999999,0,0,-1.9999999,151.39,146.64696)">
    <path
       d="M 3,6 H 0 V 0 H 6 V 3 C 6,4.6568542 4.6568542,6 3,6 Z"
       inkscape:label="#shadow-bottomright"
       style="opacity:0.00100002;fill:#000000;fill-opacity:0.00392157"
       id="path95-4"
       sodipodi:nodetypes="scccss" />
    <path
       id="path2368-7"
       style="fill:url(#radialGradient3268-6);fill-opacity:1;fill-rule:evenodd;stroke-width:0.999997"
       d="M 6,0 C 6,3.9881462 3.9744051,6 0,6 V 16 H 3 C 10.179702,16 16,10.179702 16,3 V 0 Z"
       sodipodi:nodetypes="cccsscc" />
  </g>
  <path
     id="mask-topright"
     d="m 334.99712,166.00001 h 0.99994 -11.9996 v -12 V 155 c 6.46497,0.012 11.04122,4.64881 10.99966,11.00001 z"
     sodipodi:nodetypes="cccccc"
     style="stroke-width:1.99996" />
  <path
     id="mask-bottomright"
     d="m 334.99712,229.99999 0.99994,1e-5 h -11.9996 v 12 -1.00001 c 7.06155,-0.0633 10.99966,-4.10833 10.99966,-11 z"
     sodipodi:nodetypes="cccccc"
     style="stroke-width:1.99996" />
  <path
     id="mask-bottomleft"
     d="m 248.99997,230 h -0.99995 11.99961 v 12 -1.00001 c -6.9147,0.01 -10.9678,-4.16031 -10.99966,-10.99999 z"
     sodipodi:nodetypes="cccccc"
     style="stroke-width:1.99996" />
  <text
     xml:space="preserve"
     style="font-stretch:condensed;font-size:1.25217px;font-family:Impact;-inkscape-font-specification:'Impact Condensed';text-align:start;text-anchor:start;fill:#ff0000;stroke:#000000;stroke-width:5.72866;stroke-linecap:round"
     x="118"
     y="1.9579086"
     id="text1204"><tspan
       sodipodi:role="line"
       id="tspan1202"
       x="118"
       y="1.9579086"
       style="font-style:normal;font-variant:normal;font-weight:normal;font-stretch:normal;font-size:1.25217px;font-family:'Noto Sans';-inkscape-font-specification:'Noto Sans';text-align:start;text-anchor:start;fill:#000000;stroke:none;stroke-width:5.72866">The corners of the mask are 1px  smaller because they</tspan><tspan
       sodipodi:role="line"
       x="118"
       y="3.6373291"
       style="font-style:normal;font-variant:normal;font-weight:normal;font-stretch:normal;font-size:1.25217px;font-family:'Noto Sans';-inkscape-font-specification:'Noto Sans';text-align:start;text-anchor:start;fill:#000000;stroke:none;stroke-width:5.72866"
       id="tspan1358">are not antialiased, whereas the svg corners are; if the</tspan><tspan
       sodipodi:role="line"
       x="118"
       y="5.3167458"
       style="font-style:normal;font-variant:normal;font-weight:normal;font-stretch:normal;font-size:1.25217px;font-family:'Noto Sans';-inkscape-font-specification:'Noto Sans';text-align:start;text-anchor:start;fill:#000000;stroke:none;stroke-width:5.72866"
       id="tspan1360">mask is the same size of the svg, then, some of the corner</tspan><tspan
       sodipodi:role="line"
       x="118"
       y="6.9961662"
       style="font-style:normal;font-variant:normal;font-weight:normal;font-stretch:normal;font-size:1.25217px;font-family:'Noto Sans';-inkscape-font-specification:'Noto Sans';text-align:start;text-anchor:start;fill:#000000;stroke:none;stroke-width:5.72866"
       id="tspan1362">pixels of the mask will be visible even though they should</tspan><tspan
       sodipodi:role="line"
       x="118"
       y="8.6755867"
       style="font-style:normal;font-variant:normal;font-weight:normal;font-stretch:normal;font-size:1.25217px;font-family:'Noto Sans';-inkscape-font-specification:'Noto Sans';text-align:start;text-anchor:start;fill:#000000;stroke:none;stroke-width:5.72866"
       id="tspan1364">be covered by the svg.</tspan></text>
  <g
     id="top"
     transform="matrix(2,0,0,2,-80.208705,138.64696)">
    <rect
       id="rect4152"
       height="6"
       style="opacity:0.5;stop-color:#eff0f1"
       class="ColorScheme-Background"
       fill="currentColor"
       width="32"
       x="0"
       y="0" />
    <path
       style="opacity:0.2;stop-color:#eff0f1;fill:#f1f2f3;fill-opacity:1"
       d="M 0,0 V 0.5 H 32 V 0 Z"
       id="path1337"
       class="ColorScheme-Background"
       fill="currentColor"
       sodipodi:nodetypes="ccccc" />
  </g>
  <g
     id="bottom"
     transform="matrix(2,0,0,2,-80.208705,214.64696)">
    <rect
       id="rect4148"
       height="6"
       style="opacity:0.5;stop-color:#eff0f1"
       class="ColorScheme-Background"
       fill="currentColor"
       width="32"
       x="0"
       y="0" />
    <path
       style="opacity:0.2;stop-color:#eff0f1;fill:#f1f2f3;fill-opacity:1"
       d="M 0,5.5 V 6 H 32 V 5.5 Z"
       id="path1671"
       class="ColorScheme-Background"
       fill="currentColor"
       sodipodi:nodetypes="ccccc" />
  </g>
  <g
     id="left"
     transform="matrix(2,0,0,2,-92.208705,150.64696)">
    <rect
       id="rect4144"
       height="32"
       style="opacity:0.5;stop-color:#eff0f1"
       class="ColorScheme-Background"
       fill="currentColor"
       width="6"
       x="0"
       y="0" />
    <path
       style="opacity:0.2;stop-color:#eff0f1;fill:#f1f2f3;fill-opacity:1"
       d="M 0,32 H 0.5 V 0 H 0 Z"
       id="path1785"
       class="ColorScheme-Background"
       fill="currentColor"
       sodipodi:nodetypes="ccccc" />
  </g>
  <g
     id="right"
     transform="matrix(2,0,0,2,-16.208705,150.64696)">
    <rect
       id="rect4140"
       height="32"
       style="opacity:0.5;stop-color:#eff0f1"
       class="ColorScheme-Background"
       fill="currentColor"
       width="6"
       x="0"
       y="0" />
    <path
       style="opacity:0.2;stop-color:#eff0f1;fill:#f1f2f3;fill-opacity:1"
       d="M 5.5,32 H 6 V 0 H 5.5 Z"
       id="path1902"
       class="ColorScheme-Background"
       fill="currentColor"
       sodipodi:nodetypes="ccccc" />
  </g>
  <g
     id="center"
     transform="matrix(2,0,0,2,-80.208705,150.64696)">
    <rect
       id="rect4138"
       height="32"
       style="opacity:0.5;stop-color:#eff0f1"
       class="ColorScheme-Background"
       fill="currentColor"
       width="32"
       x="0"
       y="0" />
  </g>
  <g
     id="topleft"
     transform="matrix(2,0,0,2,-108.20871,134.64696)">
    <path
       d="m 8,8 h 6 V 2 C 10,2 8,4 8,8 Z"
       style="opacity:0.5;stop-color:#eff0f1"
       class="ColorScheme-Background"
       fill="currentColor"
       id="path3115"
       sodipodi:nodetypes="cccc" />
    <path
       style="opacity:0.2;stroke-width:2;stop-color:#eff0f1;fill:#f2f2f2;fill-opacity:1"
       d="m 116,121 h 1 c 0.25877,-3.21057 0.65082,-6.23682 2.707,-8.293 2.05618,-2.05618 4.16465,-2.7364 8.293,-2.707 v -1 c -4,0 -7,1 -9,3 -2,2 -3,5 -3,9 z"
       id="path1337-3"
       class="ColorScheme-Background"
       fill="currentColor"
       sodipodi:nodetypes="ccaccsc"
       transform="matrix(0.5,0,0,0.5,-50,-52.5)" />
  </g>
  <g
     id="topright"
     transform="matrix(2,0,0,2,-16.208705,138.64696)">
    <path
       d="M 0,0 V 6 H 6 C 6,2 4,0 0,0 Z"
       style="opacity:0.5;stop-color:#eff0f1"
       class="ColorScheme-Background"
       fill="currentColor"
       id="path3118"
       sodipodi:nodetypes="cccc" />
    <path
       style="opacity:0.2;stroke-width:1;stop-color:#eff0f1;fill:#f1f2f3;fill-opacity:1"
       d="M 0,0 V 0.5 C 1.605285,0.629385 3.11841,0.82541 4.1465,1.8535 5.17459,2.88159 5.5147,3.935825 5.5,6 H 6 C 6,4 5.5,2.5 4.5,1.5 3.5,0.5 2,0 0,0 Z"
       id="path1337-3-5"
       class="ColorScheme-Background"
       fill="currentColor"
       sodipodi:nodetypes="ccaccsc" />
  </g>
  <g
     id="bottomleft"
     transform="matrix(2,0,0,2,-92.208705,214.64696)">
    <path
       d="M 6,6 V 0 H 0 c 0,4 2,6 6,6 z"
       style="opacity:0.5;stop-color:#eff0f1"
       class="ColorScheme-Background"
       fill="currentColor"
       id="path3124"
       sodipodi:nodetypes="cccc" />
    <path
       style="opacity:0.2;stroke-width:1;stop-color:#eff0f1;fill:#f1f2f3;fill-opacity:1"
       d="M 6,6 V 5.5 C 4.394715,5.370615 2.88159,5.17459 1.8535,4.1465 0.82541,3.11841 0.4853,2.064175 0.5,0 H 0 C 0,2 0.5,3.5 1.5,4.5 2.5,5.5 4,6 6,6 Z"
       id="path1337-3-56"
       class="ColorScheme-Background"
       fill="currentColor"
       sodipodi:nodetypes="ccaccsc" />
  </g>
  <g
     id="bottomright"
     transform="matrix(2,0,0,2,-16.208705,214.64696)">
    <path
       d="M 0,6 V 0 H 6 C 6,4 4,6 0,6 Z"
       style="opacity:0.5;stop-color:#eff0f1"
       class="ColorScheme-Background"
       fill="currentColor"
       id="path3121"
       sodipodi:nodetypes="cccc" />
    <path
       style="opacity:0.2;stroke-width:1;stop-color:#eff0f1;fill:#f1f2f3;fill-opacity:1"
       d="M 6,0 H 5.5 C 5.370615,1.605285 5.17459,3.11841 4.1465,4.1465 3.11841,5.17459 2.064175,5.5147 0,5.5 V 6 C 2,6 3.5,5.5 4.5,4.5 5.5,3.5 6,2 6,0 Z"
       id="path1337-3-3"
       class="ColorScheme-Background"
       fill="currentColor"
       sodipodi:nodetypes="ccaccsc" />
  </g>
  <rect
     id="hint-top-margin"
     height="8"
     style="fill:#ff00ff;stroke-width:1.99999"
     width="8"
     x="-52.208706"
     y="138.64696" />
  <rect
     id="hint-bottom-margin"
     height="8"
     style="fill:#ff00ff;stroke-width:1.99999"
     width="8"
     x="-52.208706"
     y="218.64696" />
  <rect
     id="hint-right-margin"
     height="8"
     style="fill:#ff00ff;stroke-width:1.99999"
     width="8"
     x="-12.208705"
     y="178.64696" />
  <rect
     id="hint-left-margin"
     height="8"
     style="fill:#ff00ff;stroke-width:1.99999"
     width="8"
     x="-92.208702"
     y="178.64696" />
  <rect
     id="hint-top-inset"
     height="2e-08"
     style="fill:#00ff00;stroke-width:1.99999"
     width="8"
     x="-52.208706"
     y="138.64696" />
  <rect
     id="hint-bottom-inset"
     height="2e-08"
     style="fill:#00ff00;stroke-width:1.99999"
     width="8"
     x="-52.208706"
     y="226.64696" />
  <rect
     id="hint-left-inset"
     height="8"
     style="fill:#00ff00;stroke-width:1.99999"
     width="2e-08"
     x="-92.208702"
     y="178.64696" />
  <rect
     id="hint-right-inset"
     height="8"
     style="fill:#00ff00;stroke-width:1.99999"
     width="2e-08"
     x="-4.2087054"
     y="178.64696" />
</svg>
